<svg width="442" height="548" viewBox="0 0 442 548" fill="none" xmlns="http://www.w3.org/2000/svg">
<rect width="442" height="548" fill="white"/>
<path d="M131.5 122.453H101.922V146.641H136.281V154H92.9219V85.75H135.812V93.1562H101.922V115.094H131.5V122.453ZM199.938 154H190.891L156.531 101.406V154H147.484V85.75H156.531L190.984 138.578V85.75H199.938V154ZM236.031 123.578C228.312 121.359 222.688 118.641 219.156 115.422C215.656 112.172 213.906 108.172 213.906 103.422C213.906 98.0469 216.047 93.6094 220.328 90.1094C224.641 86.5781 230.234 84.8125 237.109 84.8125C241.797 84.8125 245.969 85.7188 249.625 87.5312C253.312 89.3438 256.156 91.8438 258.156 95.0312C260.188 98.2188 261.203 101.703 261.203 105.484H252.156C252.156 101.359 250.844 98.125 248.219 95.7812C245.594 93.4062 241.891 92.2188 237.109 92.2188C232.672 92.2188 229.203 93.2031 226.703 95.1719C224.234 97.1094 223 99.8125 223 103.281C223 106.062 224.172 108.422 226.516 110.359C228.891 112.266 232.906 114.016 238.562 115.609C244.25 117.203 248.688 118.969 251.875 120.906C255.094 122.812 257.469 125.047 259 127.609C260.562 130.172 261.344 133.188 261.344 136.656C261.344 142.188 259.188 146.625 254.875 149.969C250.562 153.281 244.797 154.938 237.578 154.938C232.891 154.938 228.516 154.047 224.453 152.266C220.391 150.453 217.25 147.984 215.031 144.859C212.844 141.734 211.75 138.188 211.75 134.219H220.797C220.797 138.344 222.312 141.609 225.344 144.016C228.406 146.391 232.484 147.578 237.578 147.578C242.328 147.578 245.969 146.609 248.5 144.672C251.031 142.734 252.297 140.094 252.297 136.75C252.297 133.406 251.125 130.828 248.781 129.016C246.438 127.172 242.188 125.359 236.031 123.578ZM282.578 154H273.578V85.75H282.578V154ZM310.703 85.75L333.016 141.438L355.328 85.75H367V154H358V127.422L358.844 98.7344L336.438 154H329.547L307.188 98.875L308.078 127.422V154H299.078V85.75H310.703Z" fill="#2B3B7A"/>
<path d="M161 208H292V322C292 350.167 269.167 373 241 373H212C183.833 373 161 350.167 161 322V208Z" fill="#2EB1D5"/>
<path d="M203.014 350L208.097 319.5L221.497 338.5L239.055 319.5L244.138 350H258L250.145 299H234.434L221.497 319.5L208.097 299H197.007L191 350H203.014Z" fill="white" stroke="#2EB1D5"/>
<path d="M202.5 278H215.5V265L209 247H246L235.5 265L241 278H252.5V265L264.5 242V225H252.5V232H235.5V225H222L215.5 232H209L202.5 225H191V247L202.5 265V278Z" fill="white" stroke="#16B5F9"/>
</svg>
